<svg xmlns="http://www.w3.org/2000/svg" viewBox="0 0 764 386" width="764" height="386">
  <defs>
    <linearGradient id="frontPaper" x1="0" y1="0" x2="0" y2="1">
      <stop offset="0" stop-color="#ca8039"/>
      <stop offset="0.48" stop-color="#b96a2f"/>
      <stop offset="1" stop-color="#985026"/>
    </linearGradient>
    <radialGradient id="button" cx="45%" cy="38%" r="60%">
      <stop offset="0" stop-color="#b74e68"/>
      <stop offset="1" stop-color="#8f334f"/>
    </radialGradient>
    <filter id="paperNoise" x="-8%" y="-8%" width="116%" height="116%">
      <feTurbulence type="fractalNoise" baseFrequency="1.28" numOctaves="4" seed="22" result="noise"/>
      <feColorMatrix in="noise" type="matrix" values="0 0 0 0 0.76 0 0 0 0 0.42 0 0 0 0 0.19 0 0 0 0.20 0" result="tint"/>
      <feBlend in="SourceGraphic" in2="tint" mode="multiply"/>
    </filter>
  </defs>
  <path d="M0 94C98 104 178 116 260 129C312 137 350 143 382 143C414 143 452 137 504 129C586 116 666 104 764 94V386H0Z" fill="url(#frontPaper)" filter="url(#paperNoise)"/>
  <path d="M24 126C126 136 214 145 296 151C340 154 364 157 382 157C400 157 424 154 468 151C550 145 638 136 740 126" fill="none" stroke="#e3a45f" stroke-width="1" opacity="0.24"/>
  <path d="M24 378H740" stroke="#6b3317" stroke-width="1" opacity="0.12"/>
  <path d="M0 94C98 104 178 116 260 129C312 137 350 143 382 143C414 143 452 137 504 129C586 116 666 104 764 94" fill="none" stroke="#713819" stroke-width="2.2" opacity="0.55"/>
  <path d="M0 99C98 109 178 121 260 134C312 142 350 148 382 148C414 148 452 142 504 134C586 121 666 109 764 99" fill="none" stroke="#e3a45f" stroke-width="2" opacity="0.36"/>
  <path d="M382 144C377 205 388 276 382 340" fill="none" stroke="#8f2638" stroke-width="5" stroke-linecap="round" opacity="0.86"/>
  <path d="M386 144C381 205 392 276 386 340" fill="none" stroke="#c55355" stroke-width="2" stroke-linecap="round" opacity="0.48"/>
  <path d="M382 143V386" stroke="#6d3418" stroke-width="2" opacity="0.35"/>
  <circle cx="382" cy="342" r="36" fill="url(#button)"/>
  <circle cx="382" cy="342" r="13" fill="#d7c39a" stroke="#8b6d3e" stroke-width="2"/>
  <circle cx="382" cy="342" r="8" fill="#f0e6d2" stroke="#8a7a61" stroke-width="1.5"/>
</svg>
