<svg xmlns="http://www.w3.org/2000/svg" viewBox="0 0 764 682" width="764" height="682">
  <defs>
    <linearGradient id="paper" x1="0" y1="0" x2="0" y2="1">
      <stop offset="0" stop-color="#c47a35"/>
      <stop offset="0.45" stop-color="#b96c2f"/>
      <stop offset="1" stop-color="#9f5528"/>
    </linearGradient>
    <radialGradient id="button" cx="45%" cy="38%" r="60%">
      <stop offset="0" stop-color="#b74e68"/>
      <stop offset="1" stop-color="#8f334f"/>
    </radialGradient>
    <filter id="paperNoise" x="-8%" y="-8%" width="116%" height="116%">
      <feTurbulence type="fractalNoise" baseFrequency="1.35" numOctaves="4" seed="14" result="noise"/>
      <feColorMatrix in="noise" type="matrix" values="0 0 0 0 0.75 0 0 0 0 0.42 0 0 0 0 0.20 0 0 0 0.20 0" result="tint"/>
      <feBlend in="SourceGraphic" in2="tint" mode="multiply"/>
    </filter>
    <filter id="softShadow" x="-20%" y="-20%" width="140%" height="140%">
      <feDropShadow dx="0" dy="8" stdDeviation="9" flood-color="#5b3310" flood-opacity="0.20"/>
    </filter>
  </defs>
  <g filter="url(#softShadow)">
    <path d="M36 26H728C749 26 764 43 764 64V682H0V64C0 43 15 26 36 26Z" fill="url(#paper)" filter="url(#paperNoise)"/>
    <path d="M48 40H716C735 40 748 54 748 72V668" fill="none" stroke="#e2a360" stroke-width="1.4" opacity="0.34"/>
    <path d="M18 330C140 342 254 349 382 349C510 349 624 342 746 330" fill="none" stroke="#7a3f20" stroke-width="1" opacity="0.12"/>
    <path d="M0 296H764" stroke="#7c3f1d" stroke-width="2" opacity="0.42"/>
    <path d="M0 302H764" stroke="#e1a35e" stroke-width="2" opacity="0.38"/>
    <path d="M382 88C378 154 390 235 382 392" fill="none" stroke="#8f2638" stroke-width="5" stroke-linecap="round" opacity="0.86"/>
    <path d="M386 88C383 155 394 236 386 392" fill="none" stroke="#c55355" stroke-width="2" stroke-linecap="round" opacity="0.52"/>
    <circle cx="382" cy="78" r="36" fill="url(#button)"/>
    <circle cx="382" cy="78" r="13" fill="#d7c39a" stroke="#8b6d3e" stroke-width="2"/>
    <circle cx="382" cy="78" r="8" fill="#f0e6d2" stroke="#8a7a61" stroke-width="1.5"/>
  </g>
</svg>
